<?xml version="1.0" encoding="iso-8859-1"?>
<!-- Generator: Adobe Illustrator 17.1.0, SVG Export Plug-In . SVG Version: 6.00 Build 0)  -->
<!DOCTYPE svg PUBLIC "-//W3C//DTD SVG 1.1//EN" "http://www.w3.org/Graphics/SVG/1.1/DTD/svg11.dtd">
<svg version="1.1" id="Capa_1" xmlns="http://www.w3.org/2000/svg" xmlns:xlink="http://www.w3.org/1999/xlink" x="0px" y="0px"
	 viewBox="0 0 200 200" style="enable-background:new 0 0 200 200;" xml:space="preserve">
<g>
	<path d="M75.002,146.996c39.698,0,71.994-32.296,71.994-71.994S114.7,3.008,75.002,3.008c-39.698,0-71.994,32.296-71.994,71.994
		S35.304,146.996,75.002,146.996z M75.002,26.257c26.878,0,48.745,21.867,48.745,48.745s-21.867,48.745-48.745,48.745
		S26.257,101.88,26.257,75.002S48.124,26.257,75.002,26.257z"/>
	<path d="M174.748,194.992c5.41,0,10.494-2.107,14.314-5.934c3.823-3.817,5.93-8.9,5.93-14.311c0-5.409-2.107-10.495-5.932-14.321
		l-40.09-40.09c-1.066-1.066-2.443-1.654-3.876-1.654c-1.781,0-3.42,0.886-4.497,2.431c-5.307,7.62-11.862,14.175-19.482,19.482
		c-1.391,0.969-2.27,2.44-2.411,4.036c-0.14,1.578,0.455,3.159,1.633,4.337l40.09,40.09
		C164.252,192.885,169.338,194.992,174.748,194.992z"/>
</g>
</svg>
